PathFileType	4	(X/Y/Z)	c:/Users/goper/Files/vsCode/490R/osim_files/C03/C03_Slow_05.trc
DataRate	CameraRate	NumFrames	NumMarkers	Units                	OrigDataRate	OrigDataStartFrame	OrigNumFrames
250.00	250.00	5	36	mm	250.0	1854	2966
                Frame#	Time	LPSIS			LASIS			LTH1			LTH2			LTH3			LTH4			LLFE			LMFE			LSH1			LSH2			LSH3			LSH4			LLMAL			LMMAL			LCAL			LMTP5			LTOE			LMTP1			RPSIS			RASIS			RTH1			RTH2			RTH3			RTH4			RLFE			RMFE			RSH1			RSH2			RSH3			RSH4			RLMAL			RMMAL			RCAL			RMTP1			RTOE			RMTP5		
		X1	Y1	Z1	X2	Y2	Z2	X3	Y3	Z3	X4	Y4	Z4	X5	Y5	Z5	X6	Y6	Z6	X7	Y7	Z7	X8	Y8	Z8	X9	Y9	Z9	X10	Y10	Z10	X11	Y11	Z11	X12	Y12	Z12	X13	Y13	Z13	X14	Y14	Z14	X15	Y15	Z15	X16	Y16	Z16	X17	Y17	Z17	X18	Y18	Z18	X19	Y19	Z19	X20	Y20	Z20	X21	Y21	Z21	X22	Y22	Z22	X23	Y23	Z23	X24	Y24	Z24	X25	Y25	Z25	X26	Y26	Z26	X27	Y27	Z27	X28	Y28	Z28	X29	Y29	Z29	X30	Y30	Z30	X31	Y31	Z31	X32	Y32	Z32	X33	Y33	Z33	X34	Y34	Z34	X35	Y35	Z35	X36	Y36	Z36

1854	7.41200	-2213.12354	1042.77502	234.34630	-2394.31567	989.48212	262.82974	-2414.64136	645.65692	316.13278	-2445.05029	591.93274	307.75665	-2484.23193	678.25629	323.42719	-2505.36377	620.82428	314.02286	-2483.66284	531.39594	301.73978	-2502.85620	519.26807	191.56598	-2335.61670	417.18289	295.19763	-2314.01855	375.08984	293.49564	-2384.99609	387.89001	313.91925	-2356.48389	349.98740	310.71603	-2258.29785	218.57307	287.08514	-2294.39014	205.81953	216.03273	-2187.76196	221.76729	241.95311	-2327.21484	95.52939	331.56564	-2370.80957	88.34999	283.53510	-2348.19873	83.93124	241.41277	-2214.07617	1038.48120	121.85871	-2383.67725	994.98535	58.12975	-2234.31152	618.21234	63.69416	-2229.24683	557.51556	78.73913	-2295.40112	613.28455	43.29857	-2300.40283	552.14435	53.86227	-2293.64136	483.85266	76.75607	-2280.64185	505.97955	187.41597	-2200.90967	300.33649	81.61446	-2204.27490	253.11102	86.99620	-2262.40479	294.40225	70.89635	-2255.55908	251.68408	76.29428	-2245.53955	100.24446	115.28153	-2261.69897	106.11569	193.49345	-2178.10254	66.95885	154.80171	-2387.84570	54.51173	192.48637	0.00000	0.00000	0.00000	-2359.36890	39.39077	88.95625
1855	7.41600	-2217.72681	1043.05432	234.81586	-2399.04712	989.63208	262.27731	-2421.15308	646.35034	316.11249	-2451.86108	592.74677	307.61279	-2490.54810	679.32135	322.69623	-2511.98584	622.09137	313.18433	-2490.74829	532.34668	301.08179	-2509.39062	520.50641	190.74374	-2344.48535	415.11316	295.20706	-2323.67920	372.74387	293.38022	-2394.34351	386.79691	313.50323	-2366.67334	348.53964	310.51776	-2270.98926	215.15462	287.10873	-2306.82812	203.06067	216.32407	-2200.05273	216.47607	241.96059	-2342.93726	93.84607	331.44333	-2386.71533	87.65701	283.44574	-2364.12793	82.64162	241.31557	-2218.30835	1038.57068	122.31319	-2387.51416	994.89545	57.59463	-2236.65454	618.55481	64.12504	-2231.58569	557.86798	79.22697	-2297.77637	613.35168	43.42416	-2302.45386	552.20398	53.97544	-2295.63696	483.97110	76.92516	-2283.29126	506.06335	187.55862	-2201.99121	300.82639	81.89212	-2205.06274	253.56116	87.28097	-2263.46484	294.57108	71.07200	-2256.58691	251.90778	76.46706	-2245.80762	100.39017	115.37732	-2261.34766	106.39184	193.60344	-2178.18555	67.08885	154.82986	-2387.90308	54.43702	192.47768	0.00000	0.00000	0.00000	-2359.41235	39.37788	88.92986
1856	7.42000	-2222.03784	1043.49109	235.14159	-2403.69336	989.79767	261.74518	-2427.67432	647.06610	316.19006	-2458.72266	593.65729	307.35974	-2496.70361	680.31494	321.95010	-2518.50171	623.26416	312.24112	-2497.55420	533.25421	300.41068	-2515.51294	521.67639	190.03824	-2353.34106	413.01404	295.24368	-2333.42188	370.26135	293.40851	-2403.82007	385.65866	313.19785	-2376.70264	346.60834	309.44238	-2283.83691	211.58746	287.04260	-2321.62622	201.44868	215.72005	-2212.63623	211.12912	242.04422	-2358.84009	92.18983	331.40060	-2402.66724	87.06470	283.23233	-2381.15796	82.21405	240.67935	-2222.16846	1038.81213	122.72295	-2391.11377	994.66949	57.17350	-2240.09277	617.89948	63.21255	-2233.93945	558.13556	79.69349	-2300.22778	613.39410	43.56263	-2305.71729	552.29706	53.56900	-2297.68237	483.97107	77.08715	-2285.92603	506.12341	187.83594	-2203.21313	301.24240	82.24082	-2206.14307	253.99071	87.59935	-2264.65283	294.72507	71.25298	-2257.38379	252.05188	76.65311	-2246.16553	100.51998	115.47717	-2261.60303	106.46561	193.70731	-2178.25781	67.19504	154.90152	-2387.96191	54.34916	192.48100	0.00000	0.00000	0.00000	-2359.43604	39.33178	88.91686
1857	7.42400	-2226.95410	1043.48901	235.69409	-2408.85449	990.28931	261.15991	-2434.02979	647.66968	316.10651	-2465.47192	594.65656	307.19257	-2502.91602	681.27881	321.13379	-2525.04004	624.45050	311.30197	-2504.43091	534.09717	299.67914	-2522.23096	522.90253	189.45177	-2362.16553	410.75992	295.23920	-2343.21729	367.61075	293.46912	-2413.27905	384.43152	312.86588	-2387.19946	344.77359	309.22095	-2296.63989	208.06226	286.97119	-2334.57910	198.65382	215.51967	-2225.38037	205.77127	242.13928	-2375.00195	90.61652	331.21033	-2418.69458	86.62469	283.03705	-2397.90723	82.35391	240.24802	-2226.33081	1038.81458	123.26051	-2394.96265	994.52557	56.66966	-2241.84448	619.05206	64.65510	-2236.22632	558.39355	80.13854	-2302.59326	613.46881	43.68505	-2306.84399	552.23431	54.17633	-2299.75781	483.98141	77.20243	-2288.47632	506.22693	188.03883	-2204.35010	301.80692	82.53546	-2206.97876	254.50290	87.89828	-2265.69385	294.76904	71.39722	-2258.34570	252.20921	76.89384	-2246.51001	100.69140	115.58629	-2262.10815	106.68982	193.86671	-2178.32910	67.37983	154.92845	-2388.27466	54.23031	192.54158	0.00000	0.00000	0.00000	-2359.50195	39.30519	88.90652
1858	7.42800	-2231.57080	1043.72327	236.10892	-2412.91479	990.00305	260.84647	-2440.44238	648.27844	316.03000	-2471.89160	595.32471	306.62332	-2509.12744	682.24365	320.38858	-2531.53442	625.58270	310.41745	-2511.07935	534.83942	299.05774	-2529.43701	524.50946	188.49483	-2371.21729	408.37125	295.30179	-2352.95312	364.83084	293.49252	-2422.77441	383.09839	312.56912	-2397.69336	342.99512	309.52185	-2309.79736	204.40628	286.90948	-2347.88477	195.70920	214.92329	-2238.32227	200.29547	242.29939	-2390.90845	89.04030	331.02600	-2434.99048	86.26679	282.92752	-2413.11890	79.88641	240.35910	-2230.50513	1038.80139	123.71330	-2398.62842	994.25867	56.34780	-2244.26929	618.57336	63.89039	-2238.55225	558.74884	80.65111	-2304.99048	613.47192	43.82427	-2309.14966	552.25269	54.28306	-2301.86572	484.03836	77.41131	-2291.12915	506.29218	188.19121	-2205.67310	302.22153	82.77276	-2207.95068	254.91020	88.19707	-2267.17261	294.82767	71.51360	-2259.25171	252.42735	77.05529	-2246.79004	100.84425	115.71835	-2262.47144	106.78399	194.03098	-2178.31128	67.54510	154.99245	-2388.31934	54.13680	192.52965	0.00000	0.00000	0.00000	-2359.52783	39.27219	88.88374
